<svg width="67" height="68" viewBox="0 0 67 68" fill="none" xmlns="http://www.w3.org/2000/svg">
<path d="M33.667 67.333C52.0763 67.333 67 52.4093 67 34C67 15.5907 52.0763 0.666992 33.667 0.666992C15.2577 0.666992 0.333984 15.5907 0.333984 34C0.333984 52.4093 15.2577 67.333 33.667 67.333Z" fill="#FED35B"/>
<path d="M33.667 61.2789C48.7328 61.2789 60.946 49.0657 60.946 33.9999C60.946 18.9342 48.7328 6.72095 33.667 6.72095C18.6012 6.72095 6.388 18.9342 6.388 33.9999C6.388 49.0657 18.6012 61.2789 33.667 61.2789Z" fill="#EAC355"/>
<path d="M32.4891 55.5251V52.5141C30.281 52.2358 28.4859 51.7413 27.1039 51.0298C25.7218 50.3183 24.5278 49.1693 23.5219 47.5828C22.516 45.9965 21.9313 44.0584 21.7678 41.7683L26.2084 40.9341C26.5519 43.3057 27.157 45.0476 28.0239 46.1598C29.2669 47.73 30.7553 48.605 32.4891 48.785V34.7271C30.6736 34.3836 28.8172 33.6805 26.9199 32.6171C25.5133 31.8321 24.4297 30.7444 23.6691 29.3541C22.9086 27.9641 22.5283 26.3855 22.5283 24.6191C22.5283 21.4788 23.6405 18.9357 25.8649 16.9891C27.3533 15.6806 29.5613 14.8792 32.4891 14.5848V12.4749H35.0896V14.5848C37.6575 14.8301 39.6938 15.5825 41.1986 16.8419C43.1286 18.445 44.2898 20.6446 44.6824 23.4415L40.1191 24.1284C39.8574 22.395 39.3136 21.0658 38.4876 20.1417C37.6616 19.2178 36.529 18.6083 35.0896 18.3139V31.047C37.314 31.6031 38.7861 32.0368 39.5057 32.3473C40.8796 32.9524 42 33.6885 42.8669 34.5553C43.7337 35.4224 44.4002 36.4529 44.8664 37.6466C45.3325 38.8406 45.5656 40.1329 45.5656 41.5229C45.5656 44.5815 44.5924 47.133 42.6461 49.1775C40.6997 51.2222 38.1809 52.3178 35.0896 52.465V55.5251H32.4891ZM32.4891 18.2648C30.7717 18.5265 29.4182 19.2135 28.4287 20.3257C27.4392 21.4381 26.9444 22.7545 26.9444 24.2756C26.9444 25.7806 27.3656 27.0398 28.2079 28.0538C29.0502 29.0682 30.4773 29.8778 32.4891 30.4827V18.2648ZM35.0896 48.785C36.807 48.5726 38.2259 47.8281 39.3463 46.5524C40.4667 45.2766 41.0268 43.6983 41.0268 41.8173C41.0268 40.2145 40.6302 38.9264 39.8369 37.9533C39.0437 36.9803 37.4613 36.1094 35.0896 35.3404V48.785Z" fill="#FED35B"/>
<g opacity="0.1">
<path d="M23.678 2.19092C21.3295 2.92736 19.1026 3.93228 17.0099 5.14268C26.965 10.9082 33.6668 21.6684 33.6668 33.9996C33.6668 46.3317 26.965 57.0918 17.0099 62.8574C19.1026 64.0678 21.3295 65.0719 23.678 65.8091C33.4523 58.6164 39.81 47.0389 39.81 34.0004C39.81 20.9612 33.452 9.38359 23.678 2.19092Z" fill="#304551"/>
</g>
</svg>
