<svg width="47" height="47" viewBox="0 0 47 47" fill="none" xmlns="http://www.w3.org/2000/svg">
<circle cx="23.5" cy="23.4999" r="21.5" transform="rotate(179.768 23.5 23.4999)" fill="#57007B" stroke="white" stroke-width="2"/>
<path d="M16.9413 24.4639L28.06 24.4188L24.6735 28.52C24.5151 28.7121 24.4396 28.9593 24.4634 29.2071C24.4873 29.4549 24.6086 29.6831 24.8007 29.8414C24.9928 29.9998 25.24 30.0753 25.4878 30.0515C25.7356 30.0276 25.9637 29.9063 26.1221 29.7142L30.7867 24.0702C30.8181 24.0253 30.8461 23.9782 30.8705 23.9292C30.8704 23.8824 30.8702 23.8542 30.9357 23.8071C30.9777 23.6994 30.9995 23.5849 30.9999 23.4693C30.9986 23.3538 30.9759 23.2394 30.9329 23.1321C30.9327 23.0852 30.9326 23.0571 30.8668 23.0105C30.842 22.9617 30.8136 22.9148 30.7819 22.8702L26.0716 17.2643C25.983 17.1588 25.8723 17.0742 25.7473 17.0163C25.6223 16.9585 25.4861 16.9289 25.3484 16.9297C25.1293 16.9302 24.9173 17.0073 24.7492 17.1478C24.6546 17.2269 24.5765 17.3238 24.5195 17.4331C24.4624 17.5424 24.4274 17.6619 24.4166 17.7848C24.4058 17.9076 24.4193 18.0314 24.4564 18.149C24.4935 18.2666 24.5534 18.3757 24.6327 18.4701L28.0524 22.5438L16.9337 22.5889C16.6851 22.5899 16.447 22.6896 16.2719 22.8662C16.0968 23.0427 15.999 23.2815 16 23.5302C16.0011 23.7788 16.1008 24.0169 16.2773 24.192C16.4538 24.3671 16.6927 24.4649 16.9413 24.4639Z" fill="white"/>
</svg>
